<svg width="33" height="32" viewBox="0 0 33 32" fill="none" xmlns="http://www.w3.org/2000/svg">
<g id="optical-fiber 1">
<path id="Vector" d="M16.5 13H21.5C23.08 13 24.405 11.787 25.058 10H29.5C29.7652 10 30.0196 9.89464 30.2071 9.70711C30.3946 9.51957 30.5 9.26522 30.5 9C30.5 8.73478 30.3946 8.48043 30.2071 8.29289C30.0196 8.10536 29.7652 8 29.5 8H25.464C25.475 7.833 25.5 7.672 25.5 7.5C25.5 7.328 25.475 7.167 25.464 7H29.5C29.7652 7 30.0196 6.89464 30.2071 6.70711C30.3946 6.51957 30.5 6.26522 30.5 6C30.5 5.73478 30.3946 5.48043 30.2071 5.29289C30.0196 5.10536 29.7652 5 29.5 5H25.058C24.405 3.212 23.081 2 21.5 2H16.5C8.78 2 2.5 8.28 2.5 16C2.5 23.72 8.78 30 16.5 30H29.5C29.7652 30 30.0196 29.8946 30.2071 29.7071C30.3946 29.5196 30.5 29.2652 30.5 29C30.5 28.7348 30.3946 28.4804 30.2071 28.2929C30.0196 28.1054 29.7652 28 29.5 28H16.5C9.883 28 4.5 22.617 4.5 16C4.5 9.383 9.883 4 16.5 4H18.416C17.85 4.947 17.5 6.151 17.5 7.5C17.5 8.849 17.85 10.053 18.416 11H16.5C13.743 11 11.5 13.243 11.5 16C11.5 18.757 13.743 21 16.5 21H29.5C29.7652 21 30.0196 20.8946 30.2071 20.7071C30.3946 20.5196 30.5 20.2652 30.5 20C30.5 19.7348 30.3946 19.4804 30.2071 19.2929C30.0196 19.1054 29.7652 19 29.5 19H16.5C14.846 19 13.5 17.654 13.5 16C13.5 14.346 14.846 13 16.5 13ZM19.5 7.5C19.5 5.437 20.554 4 21.5 4C21.978 4 22.483 4.37 22.867 5H21.5C21.2348 5 20.9804 5.10536 20.7929 5.29289C20.6054 5.48043 20.5 5.73478 20.5 6C20.5 6.26522 20.6054 6.51957 20.7929 6.70711C20.9804 6.89464 21.2348 7 21.5 7H23.468C23.483 7.164 23.5 7.326 23.5 7.5C23.5 7.674 23.483 7.836 23.468 8H21.5C21.2348 8 20.9804 8.10536 20.7929 8.29289C20.6054 8.48043 20.5 8.73478 20.5 9C20.5 9.26522 20.6054 9.51957 20.7929 9.70711C20.9804 9.89464 21.2348 10 21.5 10H22.867C22.483 10.63 21.978 11 21.5 11C20.554 11 19.5 9.562 19.5 7.5Z" fill="white"/>
</g>
</svg>
