<svg width="32" height="32" viewBox="0 0 32 32" fill="none" xmlns="http://www.w3.org/2000/svg">
<g id="router (1) 1">
<path id="path7" d="M8.504 2.61404C6.99909 2.61069 5.51283 2.94705 4.156 3.59804L5.028 5.39804C6.11394 4.88049 7.30195 4.61259 8.50491 4.61397C9.70786 4.61536 10.8953 4.88599 11.98 5.40604L12.856 3.60604C11.4982 2.95274 10.0108 2.61368 8.504 2.61404ZM8.488 6.61404C7.598 6.61404 6.708 6.81004 5.894 7.20404L6.766 9.00404C7.30592 8.74539 7.89687 8.61079 8.49555 8.6101C9.09423 8.6094 9.68548 8.74264 10.226 9.00004L11.09 7.19604C10.2774 6.81105 9.38717 6.61222 8.488 6.61404ZM8.504 10.7C6.85 10.7 5.504 12.046 5.504 13.7C5.504 15 6.342 16.1 7.504 16.516V18H4.32C3.04 18 2 19.042 2 20.324V25.68C2 26.96 3.04 28 4.32 28H27.68C28.96 28 30 26.96 30 25.68V20.324C30 19.044 28.96 18 27.68 18H9.504V16.516C10.666 16.102 11.504 15.002 11.504 13.7C11.504 12.046 10.158 10.7 8.504 10.7ZM8.504 12.7C8.76922 12.7006 9.02336 12.8064 9.21052 12.9943C9.39768 13.1823 9.50253 13.4368 9.502 13.702C9.50147 13.9673 9.3956 14.2214 9.20769 14.4086C9.01978 14.5957 8.76522 14.7006 8.5 14.7C8.36855 14.6998 8.23843 14.6736 8.11709 14.6231C7.99574 14.5725 7.88554 14.4986 7.79277 14.4054C7.70001 14.3123 7.62649 14.2018 7.57643 14.0803C7.52637 13.9587 7.50074 13.8285 7.501 13.697C7.50126 13.5656 7.52741 13.4355 7.57796 13.3141C7.62851 13.1928 7.70246 13.0826 7.7956 12.9898C7.88874 12.897 7.99923 12.8235 8.12078 12.7735C8.24233 12.7234 8.37255 12.6998 8.504 12.7ZM4.32 20H27.676C27.854 20 27.996 20.146 27.996 20.324V25.68C27.996 25.7649 27.9623 25.8463 27.9023 25.9063C27.8423 25.9663 27.7609 26 27.676 26H4.32C4.23513 26 4.15374 25.9663 4.09373 25.9063C4.03371 25.8463 4 25.7649 4 25.68V20.324C4 20.146 4.142 20 4.32 20ZM21.98 21.902L19.88 22L19.98 24.098H20.98L22.082 24L21.982 21.902H21.98ZM6 22V24H14V22H6Z" fill="white"/>
</g>
</svg>
