<svg width="32" height="32" viewBox="0 0 32 32" fill="none" xmlns="http://www.w3.org/2000/svg">
<g id="simcard">
<path id="Vector" d="M3.53345 1.66659V30.3333C3.53345 31.0666 4.13345 31.6666 4.86678 31.6666H27.0668C27.8001 31.6666 28.4001 31.0666 28.4001 30.3333V6.86659C28.4001 6.46659 28.2001 6.06659 27.9334 5.86659L21.6001 0.666585C21.3334 0.466585 21.0668 0.333252 20.7334 0.333252H4.86678C4.13345 0.333252 3.53345 0.933252 3.53345 1.66659ZM6.20011 2.99992H20.2668L25.8001 7.53325V28.9999H6.20011V2.99992Z" fill="white"/>
<path id="Vector_2" d="M14.6666 14.2666H10.1333V16.9333H14.6666V14.2666Z" fill="white"/>
<path id="Vector_3" d="M14.6666 18.6001H10.1333V21.2668H14.6666V18.6001Z" fill="white"/>
<path id="Vector_4" d="M14.6666 23H10.1333V25.6667H14.6666V23Z" fill="white"/>
<path id="Vector_5" d="M21.8666 14.2666H17.3333V16.9333H21.8666V14.2666Z" fill="white"/>
<path id="Vector_6" d="M21.8666 18.6001H17.3333V21.2668H21.8666V18.6001Z" fill="white"/>
<path id="Vector_7" d="M21.8666 23H17.3333V25.6667H21.8666V23Z" fill="white"/>
</g>
</svg>
