<svg width="33" height="32" viewBox="0 0 33 32" fill="none" xmlns="http://www.w3.org/2000/svg">
<g id="transfer">
<path id="Vector" d="M23.6541 4.5791C23.5045 4.431 23.3146 4.33036 23.108 4.2898C22.9015 4.24925 22.6876 4.27058 22.4931 4.35112C22.2986 4.43166 22.1323 4.56783 22.0149 4.74255C21.8975 4.91726 21.8343 5.12275 21.8333 5.33323V8.53323H14.3666C14.0837 8.53323 13.8124 8.64561 13.6124 8.84565C13.4123 9.04569 13.3 9.317 13.3 9.5999C13.3 9.88279 13.4123 10.1541 13.6124 10.3541C13.8124 10.5542 14.0837 10.6666 14.3666 10.6666H22.9C23.1828 10.6666 23.4542 10.5542 23.6542 10.3541C23.8542 10.1541 23.9666 9.88279 23.9666 9.5999V7.90816L28.8584 12.7999L23.9666 17.6916V15.9999C23.9666 15.717 23.8542 15.4457 23.6542 15.2456C23.4542 15.0456 23.1828 14.9332 22.9 14.9332H11.1666V11.7332C11.1656 11.5227 11.1024 11.3173 10.985 11.1425C10.8676 10.9678 10.7013 10.8317 10.5068 10.7511C10.3124 10.6706 10.0984 10.6492 9.89189 10.6898C9.68535 10.7304 9.49539 10.831 9.34582 10.9791L1.87915 18.4458C1.78001 18.5447 1.70136 18.6623 1.64769 18.7917C1.59403 18.9211 1.56641 19.0598 1.56641 19.1999C1.56641 19.34 1.59403 19.4787 1.64769 19.6081C1.70136 19.7375 1.78001 19.8551 1.87915 19.954L9.34582 27.4207C9.495 27.5698 9.68504 27.6714 9.89192 27.7125C10.0988 27.7537 10.3132 27.7325 10.5081 27.6518C10.703 27.5711 10.8696 27.4344 10.9868 27.2591C11.104 27.0837 11.1666 26.8775 11.1666 26.6666V23.4666H18.6333C18.9162 23.4666 19.1875 23.3542 19.3875 23.1541C19.5876 22.9541 19.7 22.6828 19.7 22.3999C19.7 22.117 19.5876 21.8457 19.3875 21.6456C19.1875 21.4456 18.9162 21.3332 18.6333 21.3332H10.1C9.81706 21.3332 9.54575 21.4456 9.34571 21.6456C9.14567 21.8457 9.03329 22.117 9.03329 22.3999V24.0916L4.14155 19.1999L9.03329 14.3082V15.9999C9.03329 16.2828 9.14567 16.5541 9.34571 16.7541C9.54575 16.9542 9.81706 17.0666 10.1 17.0666H21.8333V20.2666C21.8333 20.4775 21.8959 20.6837 22.0131 20.8591C22.1303 21.0344 22.2969 21.1711 22.4918 21.2518C22.6867 21.3325 22.9011 21.3537 23.108 21.3125C23.3149 21.2714 23.5049 21.1698 23.6541 21.0207L31.1208 13.554C31.2199 13.4551 31.2985 13.3375 31.3522 13.2081C31.4059 13.0787 31.4335 12.94 31.4335 12.7999C31.4335 12.6598 31.4059 12.5211 31.3522 12.3917C31.2985 12.2623 31.2199 12.1447 31.1208 12.0458L23.6541 4.5791Z" fill="white"/>
</g>
</svg>
